<?xml version="1.0" encoding="utf-8"?>
<!-- Generator: Adobe Illustrator 16.0.4, SVG Export Plug-In . SVG Version: 6.00 Build 0)  -->
<!DOCTYPE svg PUBLIC "-//W3C//DTD SVG 1.1//EN" "http://www.w3.org/Graphics/SVG/1.1/DTD/svg11.dtd">
<svg version="1.1" id="Layer_1" xmlns="http://www.w3.org/2000/svg" xmlns:xlink="http://www.w3.org/1999/xlink" x="0px" y="0px"
	 width="287.871px" height="103.52px" viewBox="0 0 287.871 103.52" enable-background="new 0 0 287.871 103.52"
	 xml:space="preserve">
<g>
	<path d="M3.543,69.768v-5.104l12.628-25.677H3.964v-5.419h19.047v5.104L10.331,64.4h12.786v5.367H3.543z"/>
	<path d="M44.899,58.297h-12.47c0,2.281,0.106,3.867,0.316,4.762c0.21,0.895,0.666,1.491,1.368,1.789
		c0.702,0.298,1.929,0.447,3.683,0.447c1.684,0,3.842-0.14,6.473-0.42v4.472c-0.877,0.245-2.044,0.447-3.5,0.605
		c-1.456,0.158-2.867,0.237-4.236,0.237c-2.946,0-5.113-0.447-6.498-1.342c-1.386-0.895-2.28-2.262-2.683-4.104
		c-0.404-1.842-0.605-4.622-0.605-8.34c0-3.684,0.192-6.454,0.579-8.313c0.385-1.859,1.244-3.253,2.578-4.184
		c1.333-0.929,3.42-1.394,6.262-1.394c2.806,0,4.814,0.447,6.024,1.342c1.21,0.894,1.964,2.228,2.262,3.998
		c0.298,1.771,0.447,4.604,0.447,8.498V58.297z M33.692,47.879c-0.492,0.315-0.815,0.913-0.974,1.789
		c-0.158,0.877-0.254,2.351-0.29,4.42h7.051v-0.053c0-2.034-0.088-3.507-0.263-4.419c-0.176-0.912-0.492-1.508-0.948-1.789
		c-0.456-0.28-1.192-0.421-2.209-0.421C34.972,47.405,34.183,47.563,33.692,47.879z"/>
	<path d="M49.319,42.933h5.208l0.21,4.578h0.368c0.526-1.895,1.307-3.201,2.342-3.92c1.034-0.718,2.394-1.078,4.078-1.078v6.051
		c-1.615,0-2.894,0.281-3.841,0.841c-0.947,0.562-1.631,1.473-2.052,2.736c-0.42,1.263-0.631,3.018-0.631,5.262v12.365h-5.683
		V42.933z"/>
	<path d="M67.261,69.031c-1.298-0.771-2.131-2.069-2.499-3.894c-0.369-1.823-0.552-4.753-0.552-8.787
		c0-4.069,0.184-7.016,0.552-8.839c0.368-1.824,1.201-3.113,2.499-3.868c1.297-0.754,3.402-1.131,6.314-1.131
		c2.911,0,5.016,0.376,6.314,1.131c1.297,0.754,2.131,2.043,2.499,3.868c0.368,1.824,0.553,4.771,0.553,8.839
		c0,4.034-0.185,6.964-0.553,8.787c-0.368,1.825-1.202,3.123-2.499,3.894c-1.298,0.771-3.403,1.158-6.314,1.158
		C70.663,70.188,68.558,69.802,67.261,69.031z M76.18,64.743c0.473-0.369,0.771-1.114,0.895-2.237
		c0.122-1.122,0.184-3.174,0.184-6.156c0-3.017-0.062-5.078-0.184-6.182c-0.124-1.105-0.421-1.842-0.895-2.21
		c-0.474-0.369-1.342-0.552-2.604-0.552c-1.263,0-2.131,0.184-2.605,0.552c-0.473,0.369-0.772,1.105-0.894,2.21
		c-0.124,1.104-0.185,3.166-0.185,6.182c0,2.982,0.061,5.034,0.185,6.156c0.122,1.123,0.421,1.868,0.894,2.237
		c0.474,0.368,1.342,0.552,2.605,0.552C74.838,65.295,75.707,65.111,76.18,64.743z"/>
</g>
<g>
	<path d="M208.067,33.567l-8.103,36.201h6.051l0.662-3.224l1.834-8.93h7.629l2.183,10.397l0.372,1.757h6.156l-8.103-36.201H208.067z
		 M212.487,39.512l2.535,12.681h-5.415l2.563-12.681H212.487z"/>
	<polygon points="243.794,60.139 243.478,60.139 237.744,33.567 228.536,33.567 228.536,69.768 234.217,69.768 234.217,42.144 
		234.533,42.144 240.583,69.768 246.425,69.768 252.529,42.144 252.792,42.144 252.792,69.768 258.632,69.768 258.632,33.567 
		249.528,33.567 	"/>
	<path d="M283.564,38.881c-0.439-1.685-1.299-2.99-2.58-3.92c-1.279-0.929-3.166-1.394-5.656-1.394h-11.365v36.201h5.999V57.613
		h5.262c2.525,0,4.446-0.492,5.76-1.474c1.316-0.981,2.184-2.323,2.605-4.025c0.42-1.701,0.631-3.884,0.631-6.551
		C284.221,42.793,284,40.564,283.564,38.881z M277.906,49.826c-0.174,0.877-0.56,1.492-1.156,1.841
		c-0.597,0.352-1.579,0.526-2.948,0.526h-3.84V38.986h3.894c1.333,0,2.297,0.176,2.895,0.526c0.596,0.352,0.982,0.965,1.156,1.841
		c0.176,0.877,0.264,2.281,0.264,4.21C278.17,47.529,278.082,48.949,277.906,49.826z"/>
</g>
<rect x="106.679" y="279.45" transform="matrix(-0.5812 -0.8137 0.8137 -0.5812 -58.7044 528.7018)" fill="#E94E1B" width="0.017" height="0.012"/>
<polygon fill="#E94E1B" points="106.684,279.446 106.679,279.454 106.685,279.448 "/>
<path fill="#E94E1B" d="M106.685,279.448c0.005,0.004,0.006,0.006,0.006,0.006c0.024-0.023,0.043-0.053,0.067-0.078L106.685,279.448
	z"/>
<polygon fill="#E94E1B" points="106.673,279.454 106.673,279.466 106.678,279.456 106.676,279.458 "/>
<polygon fill="#E94E1B" points="106.673,279.454 106.676,279.458 106.678,279.456 106.679,279.454 106.674,279.448 "/>
<polygon fill="#E94E1B" points="106.675,279.437 106.674,279.448 106.676,279.452 106.684,279.446 "/>
<path fill="#E94E1B" d="M106.633,279.396c0.007,0.01,0.017,0.021,0.025,0.033c-0.002-0.004-0.003-0.008-0.005-0.012
	C106.647,279.409,106.641,279.403,106.633,279.396z"/>
<polygon fill="#E94E1B" points="106.667,279.448 106.673,279.466 106.673,279.454 "/>
<path fill="#E94E1B" d="M106.674,279.448c-0.004-0.005-0.011-0.014-0.016-0.02c0.004,0.006,0.005,0.014,0.008,0.02l0.007,0.006
	L106.674,279.448z"/>
<path fill="#E94E1B" d="M106.659,279.429c0.004,0.006,0.011,0.015,0.016,0.02l0-0.012c-0.007-0.006-0.012-0.013-0.021-0.02
	C106.656,279.421,106.657,279.425,106.659,279.429z"/>
<path fill="#E1D823" d="M167.517,28.334l-11.696-11.635L142.595,3.543v8.815v8.815v8.683l0.001,8.682v0l-17.656,17.564
	c-4.716,4.692-7.314,10.929-7.314,17.563c0,0.51,0.017,1.017,0.047,1.521l11.685,11.624l13.237,13.167v-8.814v-8.814v-0.001v-8.682
	v-8.683v0l17.656-17.564c4.716-4.691,7.315-10.929,7.315-17.563C167.566,29.345,167.548,28.839,167.517,28.334z"/>
<path fill="#FAEA2B" d="M167.517,28.334l-11.696-11.635L142.595,3.543v8.815v8.815v8.683l0.001,8.682v0l-17.656,17.564
	c-4.716,4.692-7.314,10.929-7.314,17.563c0,0.51,0.017,1.017,0.047,1.521l11.685,11.624l13.237,13.167v-8.814v-8.814v-0.001
	l-4.364-4.341c-1.165-1.16-1.808-2.701-1.808-4.341s0.642-3.182,1.808-4.342l4.364-4.341v0l17.656-17.564
	c4.716-4.691,7.315-10.929,7.315-17.563C167.566,29.345,167.548,28.839,167.517,28.334z"/>
<path fill="#E1D823" d="M142.595,64.983L142.595,64.983l-4.364,4.341c-1.166,1.16-1.808,2.702-1.808,4.342s0.643,3.181,1.808,4.341
	l4.364,4.341v-8.682V64.983z"/>
<path fill="#FFD505" d="M155.821,43.012c7.304-7.266,7.304-19.045,0-26.312L142.595,3.543v8.815v8.815v8.683l0.001,8.682v0
	l-17.656,17.564c-4.716,4.692-7.314,10.929-7.314,17.563c0,0.51,0.017,1.017,0.047,1.521l11.685,11.624l13.237,13.167v-8.814
	l-8.795-8.749c-2.348-2.336-3.642-5.445-3.642-8.749s1.294-6.412,3.642-8.749L155.821,43.012z"/>
<path fill="#E62747" d="M93.991,51.892l7.38,7.342l5.003,4.977l5.302,5.274c0.946-6.614,4-12.719,8.832-17.527l22.086-21.971v-8.816
	v-8.814V3.542L93.991,51.892z"/>
<path fill="#C4203D" d="M111.646,43.143c-4.65,4.625-8.124,10.109-10.275,16.091l5.003,4.977l5.302,5.274
	c0.946-6.614,4-12.719,8.832-17.527l22.086-21.971v-8.816v-8.814L111.646,43.143z"/>
<path fill="#AA1D36" d="M106.374,64.211l5.302,5.274c0.946-6.614,4-12.719,8.832-17.527l22.086-21.971v-8.816L116.078,47.55
	C111.36,52.243,108.056,57.967,106.374,64.211z"/>
<path fill="#50C0DE" d="M183.82,44.286l-5.003-4.976l-5.302-5.275c-0.947,6.614-4,12.72-8.832,17.528l-22.087,21.971l0,8.814v8.815
	l0,8.814l48.606-48.35L183.82,44.286z"/>
<path fill="#2DACCE" d="M178.816,39.31l-5.302-5.275c-0.947,6.614-4,12.72-8.832,17.528l-22.087,21.971l0,8.814v8.815l30.948-30.786
	c4.65-4.626,8.125-10.109,10.277-16.091L178.816,39.31z"/>
<path fill="#269BC2" d="M169.112,55.969c4.719-4.692,8.021-10.417,9.704-16.659l-5.302-5.275c-0.947,6.614-4,12.72-8.832,17.528
	l-22.087,21.971l0,8.814L169.112,55.969z"/>
<path fill="#FBBB18" d="M151.39,21.106l-8.795-8.749v8.815v8.683l0.001,8.682v0l-17.656,17.564
	c-4.716,4.692-7.314,10.929-7.314,17.563c0,0.51,0.017,1.017,0.047,1.521l11.685,11.624c-7.292-7.268-7.288-19.038,0.012-26.3
	l22.021-21.905c2.349-2.337,3.644-5.443,3.644-8.749C155.034,26.551,153.74,23.444,151.39,21.106z"/>
<path fill="#F49520" d="M148.767,29.855c0-1.64-0.641-3.181-1.808-4.341l-4.365-4.341v8.683l0.001,8.682l4.364-4.34
	C148.125,33.037,148.767,31.495,148.767,29.855z"/>
</svg>
